<?xml version="1.0" encoding="utf-8"?><svg xmlns="http://www.w3.org/2000/svg" xmlns:xlink="http://www.w3.org/1999/xlink" width="1920" height="957" preserveAspectRatio="xMidYMid" viewBox="0 0 1920 957" style="z-index:1;margin-right:-2px;display:block;background-color:rgb(122, 206, 255);animation-play-state:paused" ><g transform="translate(960,478.5) scale(1,1) translate(-960,-478.5)" style="transform:matrix(1, 0, 0, 1, 0, 0);animation-play-state:paused" ><g transform="matrix(1,0,0,1,1835.4227294921875,242.9676971435547)" style="transform:matrix(1, 0, 0, 1, 1835.42, 242.968);animation-play-state:paused" ><path d="M84.717,33.597c0.791-2.503,1.186-5.138,1.186-7.773C85.903,11.594,74.308,0,60.079,0 c-9.881,0-18.445,5.534-22.793,13.702c-1.581-0.527-3.426-0.791-5.138-0.791c-9.486,0-17.128,7.642-17.128,17.128 c0,1.186,0.132,2.372,0.395,3.426C6.719,34.783,0,42.424,0,51.515C0,61.66,8.169,69.829,18.314,69.829h63.373 C91.831,69.829,100,61.66,100,51.515C99.868,42.556,93.281,35.046,84.717,33.597z" fill="#bddeff" transform="scale(0.55)" style="transform:matrix(0.55, 0, 0, 0.55, 0, 0);animation-play-state:paused" ></path></g>
<g transform="matrix(1,0,0,1,496.915771484375,468.663330078125)" style="transform:matrix(1, 0, 0, 1, 496.916, 468.663);animation-play-state:paused" ><path d="M84.717,33.597c0.791-2.503,1.186-5.138,1.186-7.773C85.903,11.594,74.308,0,60.079,0 c-9.881,0-18.445,5.534-22.793,13.702c-1.581-0.527-3.426-0.791-5.138-0.791c-9.486,0-17.128,7.642-17.128,17.128 c0,1.186,0.132,2.372,0.395,3.426C6.719,34.783,0,42.424,0,51.515C0,61.66,8.169,69.829,18.314,69.829h63.373 C91.831,69.829,100,61.66,100,51.515C99.868,42.556,93.281,35.046,84.717,33.597z" fill="#bddeff" transform="scale(0.55)" style="transform:matrix(0.55, 0, 0, 0.55, 0, 0);animation-play-state:paused" ></path></g>
<g transform="matrix(1,0,0,1,1333.62646484375,153.80645751953125)" style="transform:matrix(1, 0, 0, 1, 1333.63, 153.806);animation-play-state:paused" ><path d="M84.717,33.597c0.791-2.503,1.186-5.138,1.186-7.773C85.903,11.594,74.308,0,60.079,0 c-9.881,0-18.445,5.534-22.793,13.702c-1.581-0.527-3.426-0.791-5.138-0.791c-9.486,0-17.128,7.642-17.128,17.128 c0,1.186,0.132,2.372,0.395,3.426C6.719,34.783,0,42.424,0,51.515C0,61.66,8.169,69.829,18.314,69.829h63.373 C91.831,69.829,100,61.66,100,51.515C99.868,42.556,93.281,35.046,84.717,33.597z" fill="#bddeff" transform="scale(0.55)" style="transform:matrix(0.55, 0, 0, 0.55, 0, 0);animation-play-state:paused" ></path></g>
<g transform="matrix(1,0,0,1,861.2520751953125,657.675048828125)" style="transform:matrix(1, 0, 0, 1, 861.252, 657.675);animation-play-state:paused" ><path d="M84.717,33.597c0.791-2.503,1.186-5.138,1.186-7.773C85.903,11.594,74.308,0,60.079,0 c-9.881,0-18.445,5.534-22.793,13.702c-1.581-0.527-3.426-0.791-5.138-0.791c-9.486,0-17.128,7.642-17.128,17.128 c0,1.186,0.132,2.372,0.395,3.426C6.719,34.783,0,42.424,0,51.515C0,61.66,8.169,69.829,18.314,69.829h63.373 C91.831,69.829,100,61.66,100,51.515C99.868,42.556,93.281,35.046,84.717,33.597z" fill="#bddeff" transform="scale(0.55)" style="transform:matrix(0.55, 0, 0, 0.55, 0, 0);animation-play-state:paused" ></path></g>
<g transform="matrix(1,0,0,1,1362.763671875,711.7255859375)" style="transform:matrix(1, 0, 0, 1, 1362.76, 711.726);animation-play-state:paused" ><path d="M84.717,33.597c0.791-2.503,1.186-5.138,1.186-7.773C85.903,11.594,74.308,0,60.079,0 c-9.881,0-18.445,5.534-22.793,13.702c-1.581-0.527-3.426-0.791-5.138-0.791c-9.486,0-17.128,7.642-17.128,17.128 c0,1.186,0.132,2.372,0.395,3.426C6.719,34.783,0,42.424,0,51.515C0,61.66,8.169,69.829,18.314,69.829h63.373 C91.831,69.829,100,61.66,100,51.515C99.868,42.556,93.281,35.046,84.717,33.597z" fill="#bddeff" transform="scale(0.55)" style="transform:matrix(0.55, 0, 0, 0.55, 0, 0);animation-play-state:paused" ></path></g>
<g transform="matrix(1,0,0,1,833.3343505859375,918.0657958984375)" style="transform:matrix(1, 0, 0, 1, 833.334, 918.066);animation-play-state:paused" ><path d="M84.717,33.597c0.791-2.503,1.186-5.138,1.186-7.773C85.903,11.594,74.308,0,60.079,0 c-9.881,0-18.445,5.534-22.793,13.702c-1.581-0.527-3.426-0.791-5.138-0.791c-9.486,0-17.128,7.642-17.128,17.128 c0,1.186,0.132,2.372,0.395,3.426C6.719,34.783,0,42.424,0,51.515C0,61.66,8.169,69.829,18.314,69.829h63.373 C91.831,69.829,100,61.66,100,51.515C99.868,42.556,93.281,35.046,84.717,33.597z" fill="#bddeff" transform="scale(0.55)" style="transform:matrix(0.55, 0, 0, 0.55, 0, 0);animation-play-state:paused" ></path></g>
<g transform="matrix(1,0,0,1,116.39295959472656,369.5187072753906)" style="transform:matrix(1, 0, 0, 1, 116.393, 369.519);animation-play-state:paused" ><path d="M84.717,33.597c0.791-2.503,1.186-5.138,1.186-7.773C85.903,11.594,74.308,0,60.079,0 c-9.881,0-18.445,5.534-22.793,13.702c-1.581-0.527-3.426-0.791-5.138-0.791c-9.486,0-17.128,7.642-17.128,17.128 c0,1.186,0.132,2.372,0.395,3.426C6.719,34.783,0,42.424,0,51.515C0,61.66,8.169,69.829,18.314,69.829h63.373 C91.831,69.829,100,61.66,100,51.515C99.868,42.556,93.281,35.046,84.717,33.597z" fill="#bddeff" transform="scale(0.55)" style="transform:matrix(0.55, 0, 0, 0.55, 0, 0);animation-play-state:paused" ></path></g>
<g transform="matrix(1,0,0,1,692.0521850585938,606.2639770507812)" style="transform:matrix(1, 0, 0, 1, 692.052, 606.264);animation-play-state:paused" ><path d="M84.717,33.597c0.791-2.503,1.186-5.138,1.186-7.773C85.903,11.594,74.308,0,60.079,0 c-9.881,0-18.445,5.534-22.793,13.702c-1.581-0.527-3.426-0.791-5.138-0.791c-9.486,0-17.128,7.642-17.128,17.128 c0,1.186,0.132,2.372,0.395,3.426C6.719,34.783,0,42.424,0,51.515C0,61.66,8.169,69.829,18.314,69.829h63.373 C91.831,69.829,100,61.66,100,51.515C99.868,42.556,93.281,35.046,84.717,33.597z" fill="#bddeff" transform="scale(0.55)" style="transform:matrix(0.55, 0, 0, 0.55, 0, 0);animation-play-state:paused" ></path></g>
<g transform="matrix(1,0,0,1,639.4676513671875,406.69097900390625)" style="transform:matrix(1, 0, 0, 1, 639.468, 406.691);animation-play-state:paused" ><path d="M84.717,33.597c0.791-2.503,1.186-5.138,1.186-7.773C85.903,11.594,74.308,0,60.079,0 c-9.881,0-18.445,5.534-22.793,13.702c-1.581-0.527-3.426-0.791-5.138-0.791c-9.486,0-17.128,7.642-17.128,17.128 c0,1.186,0.132,2.372,0.395,3.426C6.719,34.783,0,42.424,0,51.515C0,61.66,8.169,69.829,18.314,69.829h63.373 C91.831,69.829,100,61.66,100,51.515C99.868,42.556,93.281,35.046,84.717,33.597z" fill="#bddeff" transform="scale(0.55)" style="transform:matrix(0.55, 0, 0, 0.55, 0, 0);animation-play-state:paused" ></path></g>
<g transform="matrix(1,0,0,1,1072.0560302734375,268.9217224121094)" style="transform:matrix(1, 0, 0, 1, 1072.06, 268.922);animation-play-state:paused" ><path d="M84.717,33.597c0.791-2.503,1.186-5.138,1.186-7.773C85.903,11.594,74.308,0,60.079,0 c-9.881,0-18.445,5.534-22.793,13.702c-1.581-0.527-3.426-0.791-5.138-0.791c-9.486,0-17.128,7.642-17.128,17.128 c0,1.186,0.132,2.372,0.395,3.426C6.719,34.783,0,42.424,0,51.515C0,61.66,8.169,69.829,18.314,69.829h63.373 C91.831,69.829,100,61.66,100,51.515C99.868,42.556,93.281,35.046,84.717,33.597z" fill="#bddeff" transform="scale(0.55)" style="transform:matrix(0.55, 0, 0, 0.55, 0, 0);animation-play-state:paused" ></path></g>
<g transform="matrix(1,0,0,1,175.98751831054688,97.15118408203125)" style="transform:matrix(1, 0, 0, 1, 175.988, 97.1512);animation-play-state:paused" ><path d="M84.717,33.597c0.791-2.503,1.186-5.138,1.186-7.773C85.903,11.594,74.308,0,60.079,0 c-9.881,0-18.445,5.534-22.793,13.702c-1.581-0.527-3.426-0.791-5.138-0.791c-9.486,0-17.128,7.642-17.128,17.128 c0,1.186,0.132,2.372,0.395,3.426C6.719,34.783,0,42.424,0,51.515C0,61.66,8.169,69.829,18.314,69.829h63.373 C91.831,69.829,100,61.66,100,51.515C99.868,42.556,93.281,35.046,84.717,33.597z" fill="#bddeff" transform="scale(0.55)" style="transform:matrix(0.55, 0, 0, 0.55, 0, 0);animation-play-state:paused" ></path></g>
<g transform="matrix(1,0,0,1,355.2792053222656,358.1843566894531)" style="transform:matrix(1, 0, 0, 1, 355.279, 358.184);animation-play-state:paused" ><path d="M84.717,33.597c0.791-2.503,1.186-5.138,1.186-7.773C85.903,11.594,74.308,0,60.079,0 c-9.881,0-18.445,5.534-22.793,13.702c-1.581-0.527-3.426-0.791-5.138-0.791c-9.486,0-17.128,7.642-17.128,17.128 c0,1.186,0.132,2.372,0.395,3.426C6.719,34.783,0,42.424,0,51.515C0,61.66,8.169,69.829,18.314,69.829h63.373 C91.831,69.829,100,61.66,100,51.515C99.868,42.556,93.281,35.046,84.717,33.597z" fill="#ffffff" transform="scale(0.7)" style="transform:matrix(0.7, 0, 0, 0.7, 0, 0);animation-play-state:paused" ></path></g>
<g transform="matrix(1,0,0,1,389.318603515625,569.29736328125)" style="transform:matrix(1, 0, 0, 1, 389.319, 569.297);animation-play-state:paused" ><path d="M84.717,33.597c0.791-2.503,1.186-5.138,1.186-7.773C85.903,11.594,74.308,0,60.079,0 c-9.881,0-18.445,5.534-22.793,13.702c-1.581-0.527-3.426-0.791-5.138-0.791c-9.486,0-17.128,7.642-17.128,17.128 c0,1.186,0.132,2.372,0.395,3.426C6.719,34.783,0,42.424,0,51.515C0,61.66,8.169,69.829,18.314,69.829h63.373 C91.831,69.829,100,61.66,100,51.515C99.868,42.556,93.281,35.046,84.717,33.597z" fill="#ffffff" transform="scale(0.7)" style="transform:matrix(0.7, 0, 0, 0.7, 0, 0);animation-play-state:paused" ></path></g>
<g transform="matrix(1,0,0,1,1511.2896728515625,492.8454284667969)" style="transform:matrix(1, 0, 0, 1, 1511.29, 492.845);animation-play-state:paused" ><path d="M84.717,33.597c0.791-2.503,1.186-5.138,1.186-7.773C85.903,11.594,74.308,0,60.079,0 c-9.881,0-18.445,5.534-22.793,13.702c-1.581-0.527-3.426-0.791-5.138-0.791c-9.486,0-17.128,7.642-17.128,17.128 c0,1.186,0.132,2.372,0.395,3.426C6.719,34.783,0,42.424,0,51.515C0,61.66,8.169,69.829,18.314,69.829h63.373 C91.831,69.829,100,61.66,100,51.515C99.868,42.556,93.281,35.046,84.717,33.597z" fill="#ffffff" transform="scale(0.7)" style="transform:matrix(0.7, 0, 0, 0.7, 0, 0);animation-play-state:paused" ></path></g>
<g transform="matrix(1,0,0,1,1110.16552734375,657.9932250976562)" style="transform:matrix(1, 0, 0, 1, 1110.17, 657.993);animation-play-state:paused" ><path d="M84.717,33.597c0.791-2.503,1.186-5.138,1.186-7.773C85.903,11.594,74.308,0,60.079,0 c-9.881,0-18.445,5.534-22.793,13.702c-1.581-0.527-3.426-0.791-5.138-0.791c-9.486,0-17.128,7.642-17.128,17.128 c0,1.186,0.132,2.372,0.395,3.426C6.719,34.783,0,42.424,0,51.515C0,61.66,8.169,69.829,18.314,69.829h63.373 C91.831,69.829,100,61.66,100,51.515C99.868,42.556,93.281,35.046,84.717,33.597z" fill="#ffffff" transform="scale(0.7)" style="transform:matrix(0.7, 0, 0, 0.7, 0, 0);animation-play-state:paused" ></path></g>
<g transform="matrix(1,0,0,1,1126.765625,574.7373657226562)" style="transform:matrix(1, 0, 0, 1, 1126.77, 574.737);animation-play-state:paused" ><path d="M84.717,33.597c0.791-2.503,1.186-5.138,1.186-7.773C85.903,11.594,74.308,0,60.079,0 c-9.881,0-18.445,5.534-22.793,13.702c-1.581-0.527-3.426-0.791-5.138-0.791c-9.486,0-17.128,7.642-17.128,17.128 c0,1.186,0.132,2.372,0.395,3.426C6.719,34.783,0,42.424,0,51.515C0,61.66,8.169,69.829,18.314,69.829h63.373 C91.831,69.829,100,61.66,100,51.515C99.868,42.556,93.281,35.046,84.717,33.597z" fill="#ffffff" transform="scale(0.7)" style="transform:matrix(0.7, 0, 0, 0.7, 0, 0);animation-play-state:paused" ></path></g>
<g transform="matrix(1,0,0,1,748.6996459960938,519.357177734375)" style="transform:matrix(1, 0, 0, 1, 748.7, 519.357);animation-play-state:paused" ><path d="M84.717,33.597c0.791-2.503,1.186-5.138,1.186-7.773C85.903,11.594,74.308,0,60.079,0 c-9.881,0-18.445,5.534-22.793,13.702c-1.581-0.527-3.426-0.791-5.138-0.791c-9.486,0-17.128,7.642-17.128,17.128 c0,1.186,0.132,2.372,0.395,3.426C6.719,34.783,0,42.424,0,51.515C0,61.66,8.169,69.829,18.314,69.829h63.373 C91.831,69.829,100,61.66,100,51.515C99.868,42.556,93.281,35.046,84.717,33.597z" fill="#ffffff" transform="scale(0.7)" style="transform:matrix(0.7, 0, 0, 0.7, 0, 0);animation-play-state:paused" ></path></g>
<g transform="matrix(1,0,0,1,814.8639526367188,258.55596923828125)" style="transform:matrix(1, 0, 0, 1, 814.864, 258.556);animation-play-state:paused" ><path d="M84.717,33.597c0.791-2.503,1.186-5.138,1.186-7.773C85.903,11.594,74.308,0,60.079,0 c-9.881,0-18.445,5.534-22.793,13.702c-1.581-0.527-3.426-0.791-5.138-0.791c-9.486,0-17.128,7.642-17.128,17.128 c0,1.186,0.132,2.372,0.395,3.426C6.719,34.783,0,42.424,0,51.515C0,61.66,8.169,69.829,18.314,69.829h63.373 C91.831,69.829,100,61.66,100,51.515C99.868,42.556,93.281,35.046,84.717,33.597z" fill="#ffffff" transform="scale(0.7)" style="transform:matrix(0.7, 0, 0, 0.7, 0, 0);animation-play-state:paused" ></path></g>
<g transform="matrix(1,0,0,1,752.311767578125,632.286376953125)" style="transform:matrix(1, 0, 0, 1, 752.312, 632.286);animation-play-state:paused" ><path d="M84.717,33.597c0.791-2.503,1.186-5.138,1.186-7.773C85.903,11.594,74.308,0,60.079,0 c-9.881,0-18.445,5.534-22.793,13.702c-1.581-0.527-3.426-0.791-5.138-0.791c-9.486,0-17.128,7.642-17.128,17.128 c0,1.186,0.132,2.372,0.395,3.426C6.719,34.783,0,42.424,0,51.515C0,61.66,8.169,69.829,18.314,69.829h63.373 C91.831,69.829,100,61.66,100,51.515C99.868,42.556,93.281,35.046,84.717,33.597z" fill="#ffffff" transform="scale(0.7)" style="transform:matrix(0.7, 0, 0, 0.7, 0, 0);animation-play-state:paused" ></path></g>
<g transform="matrix(1,0,0,1,1433.4605712890625,29.711450576782227)" style="transform:matrix(1, 0, 0, 1, 1433.46, 29.7115);animation-play-state:paused" ><path d="M84.717,33.597c0.791-2.503,1.186-5.138,1.186-7.773C85.903,11.594,74.308,0,60.079,0 c-9.881,0-18.445,5.534-22.793,13.702c-1.581-0.527-3.426-0.791-5.138-0.791c-9.486,0-17.128,7.642-17.128,17.128 c0,1.186,0.132,2.372,0.395,3.426C6.719,34.783,0,42.424,0,51.515C0,61.66,8.169,69.829,18.314,69.829h63.373 C91.831,69.829,100,61.66,100,51.515C99.868,42.556,93.281,35.046,84.717,33.597z" fill="#ffffff" transform="scale(0.7)" style="transform:matrix(0.7, 0, 0, 0.7, 0, 0);animation-play-state:paused" ></path></g>
<g transform="matrix(1,0,0,1,779.0823974609375,935.97021484375)" style="transform:matrix(1, 0, 0, 1, 779.082, 935.97);animation-play-state:paused" ><path d="M84.717,33.597c0.791-2.503,1.186-5.138,1.186-7.773C85.903,11.594,74.308,0,60.079,0 c-9.881,0-18.445,5.534-22.793,13.702c-1.581-0.527-3.426-0.791-5.138-0.791c-9.486,0-17.128,7.642-17.128,17.128 c0,1.186,0.132,2.372,0.395,3.426C6.719,34.783,0,42.424,0,51.515C0,61.66,8.169,69.829,18.314,69.829h63.373 C91.831,69.829,100,61.66,100,51.515C99.868,42.556,93.281,35.046,84.717,33.597z" fill="#ffffff" transform="scale(0.7)" style="transform:matrix(0.7, 0, 0, 0.7, 0, 0);animation-play-state:paused" ></path></g>
<g transform="matrix(1,0,0,1,-62.25516891479492,351.0601806640625)" style="transform:matrix(1, 0, 0, 1, -62.2552, 351.06);animation-play-state:paused" ><path d="M84.717,33.597c0.791-2.503,1.186-5.138,1.186-7.773C85.903,11.594,74.308,0,60.079,0 c-9.881,0-18.445,5.534-22.793,13.702c-1.581-0.527-3.426-0.791-5.138-0.791c-9.486,0-17.128,7.642-17.128,17.128 c0,1.186,0.132,2.372,0.395,3.426C6.719,34.783,0,42.424,0,51.515C0,61.66,8.169,69.829,18.314,69.829h63.373 C91.831,69.829,100,61.66,100,51.515C99.868,42.556,93.281,35.046,84.717,33.597z" fill="#ffffff" transform="scale(0.7)" style="transform:matrix(0.7, 0, 0, 0.7, 0, 0);animation-play-state:paused" ></path></g>
<g transform="matrix(1,0,0,1,123.13723754882812,772.133544921875)" style="transform:matrix(1, 0, 0, 1, 123.137, 772.134);animation-play-state:paused" ><path d="M84.717,33.597c0.791-2.503,1.186-5.138,1.186-7.773C85.903,11.594,74.308,0,60.079,0 c-9.881,0-18.445,5.534-22.793,13.702c-1.581-0.527-3.426-0.791-5.138-0.791c-9.486,0-17.128,7.642-17.128,17.128 c0,1.186,0.132,2.372,0.395,3.426C6.719,34.783,0,42.424,0,51.515C0,61.66,8.169,69.829,18.314,69.829h63.373 C91.831,69.829,100,61.66,100,51.515C99.868,42.556,93.281,35.046,84.717,33.597z" fill="#f1f2f3" transform="scale(0.85)" style="transform:matrix(0.85, 0, 0, 0.85, 0, 0);animation-play-state:paused" ></path></g>
<g transform="matrix(1,0,0,1,468.36773681640625,248.84373474121094)" style="transform:matrix(1, 0, 0, 1, 468.368, 248.844);animation-play-state:paused" ><path d="M84.717,33.597c0.791-2.503,1.186-5.138,1.186-7.773C85.903,11.594,74.308,0,60.079,0 c-9.881,0-18.445,5.534-22.793,13.702c-1.581-0.527-3.426-0.791-5.138-0.791c-9.486,0-17.128,7.642-17.128,17.128 c0,1.186,0.132,2.372,0.395,3.426C6.719,34.783,0,42.424,0,51.515C0,61.66,8.169,69.829,18.314,69.829h63.373 C91.831,69.829,100,61.66,100,51.515C99.868,42.556,93.281,35.046,84.717,33.597z" fill="#f1f2f3" transform="scale(0.85)" style="transform:matrix(0.85, 0, 0, 0.85, 0, 0);animation-play-state:paused" ></path></g>
<g transform="matrix(1,0,0,1,265.23504638671875,367.4324645996094)" style="transform:matrix(1, 0, 0, 1, 265.235, 367.432);animation-play-state:paused" ><path d="M84.717,33.597c0.791-2.503,1.186-5.138,1.186-7.773C85.903,11.594,74.308,0,60.079,0 c-9.881,0-18.445,5.534-22.793,13.702c-1.581-0.527-3.426-0.791-5.138-0.791c-9.486,0-17.128,7.642-17.128,17.128 c0,1.186,0.132,2.372,0.395,3.426C6.719,34.783,0,42.424,0,51.515C0,61.66,8.169,69.829,18.314,69.829h63.373 C91.831,69.829,100,61.66,100,51.515C99.868,42.556,93.281,35.046,84.717,33.597z" fill="#f1f2f3" transform="scale(0.85)" style="transform:matrix(0.85, 0, 0, 0.85, 0, 0);animation-play-state:paused" ></path></g>
<g transform="matrix(1,0,0,1,618.2034301757812,92.30113220214844)" style="transform:matrix(1, 0, 0, 1, 618.203, 92.3011);animation-play-state:paused" ><path d="M84.717,33.597c0.791-2.503,1.186-5.138,1.186-7.773C85.903,11.594,74.308,0,60.079,0 c-9.881,0-18.445,5.534-22.793,13.702c-1.581-0.527-3.426-0.791-5.138-0.791c-9.486,0-17.128,7.642-17.128,17.128 c0,1.186,0.132,2.372,0.395,3.426C6.719,34.783,0,42.424,0,51.515C0,61.66,8.169,69.829,18.314,69.829h63.373 C91.831,69.829,100,61.66,100,51.515C99.868,42.556,93.281,35.046,84.717,33.597z" fill="#f1f2f3" transform="scale(0.85)" style="transform:matrix(0.85, 0, 0, 0.85, 0, 0);animation-play-state:paused" ></path></g>
<g transform="matrix(1,0,0,1,819.0280151367188,743.5535278320312)" style="transform:matrix(1, 0, 0, 1, 819.028, 743.554);animation-play-state:paused" ><path d="M84.717,33.597c0.791-2.503,1.186-5.138,1.186-7.773C85.903,11.594,74.308,0,60.079,0 c-9.881,0-18.445,5.534-22.793,13.702c-1.581-0.527-3.426-0.791-5.138-0.791c-9.486,0-17.128,7.642-17.128,17.128 c0,1.186,0.132,2.372,0.395,3.426C6.719,34.783,0,42.424,0,51.515C0,61.66,8.169,69.829,18.314,69.829h63.373 C91.831,69.829,100,61.66,100,51.515C99.868,42.556,93.281,35.046,84.717,33.597z" fill="#f1f2f3" transform="scale(0.85)" style="transform:matrix(0.85, 0, 0, 0.85, 0, 0);animation-play-state:paused" ></path></g>
<g transform="matrix(1,0,0,1,110.65657043457031,508.1521911621094)" style="transform:matrix(1, 0, 0, 1, 110.657, 508.152);animation-play-state:paused" ><path d="M84.717,33.597c0.791-2.503,1.186-5.138,1.186-7.773C85.903,11.594,74.308,0,60.079,0 c-9.881,0-18.445,5.534-22.793,13.702c-1.581-0.527-3.426-0.791-5.138-0.791c-9.486,0-17.128,7.642-17.128,17.128 c0,1.186,0.132,2.372,0.395,3.426C6.719,34.783,0,42.424,0,51.515C0,61.66,8.169,69.829,18.314,69.829h63.373 C91.831,69.829,100,61.66,100,51.515C99.868,42.556,93.281,35.046,84.717,33.597z" fill="#f1f2f3" transform="scale(0.85)" style="transform:matrix(0.85, 0, 0, 0.85, 0, 0);animation-play-state:paused" ></path></g>
<g transform="matrix(1,0,0,1,257.6658935546875,169.0465850830078)" style="transform:matrix(1, 0, 0, 1, 257.666, 169.047);animation-play-state:paused" ><path d="M84.717,33.597c0.791-2.503,1.186-5.138,1.186-7.773C85.903,11.594,74.308,0,60.079,0 c-9.881,0-18.445,5.534-22.793,13.702c-1.581-0.527-3.426-0.791-5.138-0.791c-9.486,0-17.128,7.642-17.128,17.128 c0,1.186,0.132,2.372,0.395,3.426C6.719,34.783,0,42.424,0,51.515C0,61.66,8.169,69.829,18.314,69.829h63.373 C91.831,69.829,100,61.66,100,51.515C99.868,42.556,93.281,35.046,84.717,33.597z" fill="#f1f2f3" transform="scale(0.85)" style="transform:matrix(0.85, 0, 0, 0.85, 0, 0);animation-play-state:paused" ></path></g>
<g transform="matrix(1,0,0,1,1215.15869140625,427.4657897949219)" style="transform:matrix(1, 0, 0, 1, 1215.16, 427.466);animation-play-state:paused" ><path d="M84.717,33.597c0.791-2.503,1.186-5.138,1.186-7.773C85.903,11.594,74.308,0,60.079,0 c-9.881,0-18.445,5.534-22.793,13.702c-1.581-0.527-3.426-0.791-5.138-0.791c-9.486,0-17.128,7.642-17.128,17.128 c0,1.186,0.132,2.372,0.395,3.426C6.719,34.783,0,42.424,0,51.515C0,61.66,8.169,69.829,18.314,69.829h63.373 C91.831,69.829,100,61.66,100,51.515C99.868,42.556,93.281,35.046,84.717,33.597z" fill="#f1f2f3" transform="scale(0.85)" style="transform:matrix(0.85, 0, 0, 0.85, 0, 0);animation-play-state:paused" ></path></g>
<g transform="matrix(1,0,0,1,262.0308837890625,63.77291488647461)" style="transform:matrix(1, 0, 0, 1, 262.031, 63.7729);animation-play-state:paused" ><path d="M84.717,33.597c0.791-2.503,1.186-5.138,1.186-7.773C85.903,11.594,74.308,0,60.079,0 c-9.881,0-18.445,5.534-22.793,13.702c-1.581-0.527-3.426-0.791-5.138-0.791c-9.486,0-17.128,7.642-17.128,17.128 c0,1.186,0.132,2.372,0.395,3.426C6.719,34.783,0,42.424,0,51.515C0,61.66,8.169,69.829,18.314,69.829h63.373 C91.831,69.829,100,61.66,100,51.515C99.868,42.556,93.281,35.046,84.717,33.597z" fill="#f1f2f3" transform="scale(0.85)" style="transform:matrix(0.85, 0, 0, 0.85, 0, 0);animation-play-state:paused" ></path></g>
<g transform="matrix(1,0,0,1,1347.438720703125,560.8094482421875)" style="transform:matrix(1, 0, 0, 1, 1347.44, 560.809);animation-play-state:paused" ><path d="M84.717,33.597c0.791-2.503,1.186-5.138,1.186-7.773C85.903,11.594,74.308,0,60.079,0 c-9.881,0-18.445,5.534-22.793,13.702c-1.581-0.527-3.426-0.791-5.138-0.791c-9.486,0-17.128,7.642-17.128,17.128 c0,1.186,0.132,2.372,0.395,3.426C6.719,34.783,0,42.424,0,51.515C0,61.66,8.169,69.829,18.314,69.829h63.373 C91.831,69.829,100,61.66,100,51.515C99.868,42.556,93.281,35.046,84.717,33.597z" fill="#f1f2f3" transform="scale(0.85)" style="transform:matrix(0.85, 0, 0, 0.85, 0, 0);animation-play-state:paused" ></path></g>
<g transform="matrix(1,0,0,1,1307.820068359375,390.4505615234375)" style="transform:matrix(1, 0, 0, 1, 1307.82, 390.451);animation-play-state:paused" ><path d="M84.717,33.597c0.791-2.503,1.186-5.138,1.186-7.773C85.903,11.594,74.308,0,60.079,0 c-9.881,0-18.445,5.534-22.793,13.702c-1.581-0.527-3.426-0.791-5.138-0.791c-9.486,0-17.128,7.642-17.128,17.128 c0,1.186,0.132,2.372,0.395,3.426C6.719,34.783,0,42.424,0,51.515C0,61.66,8.169,69.829,18.314,69.829h63.373 C91.831,69.829,100,61.66,100,51.515C99.868,42.556,93.281,35.046,84.717,33.597z" fill="#f1f2f3" transform="scale(0.85)" style="transform:matrix(0.85, 0, 0, 0.85, 0, 0);animation-play-state:paused" ></path></g>
<g transform="matrix(1,0,0,1,1511.8929443359375,590.72998046875)" style="transform:matrix(1, 0, 0, 1, 1511.89, 590.73);animation-play-state:paused" ><path d="M84.717,33.597c0.791-2.503,1.186-5.138,1.186-7.773C85.903,11.594,74.308,0,60.079,0 c-9.881,0-18.445,5.534-22.793,13.702c-1.581-0.527-3.426-0.791-5.138-0.791c-9.486,0-17.128,7.642-17.128,17.128 c0,1.186,0.132,2.372,0.395,3.426C6.719,34.783,0,42.424,0,51.515C0,61.66,8.169,69.829,18.314,69.829h63.373 C91.831,69.829,100,61.66,100,51.515C99.868,42.556,93.281,35.046,84.717,33.597z" fill="#bddeff" transform="scale(1)" style="transform:matrix(1, 0, 0, 1, 0, 0);animation-play-state:paused" ></path></g>
<g transform="matrix(1,0,0,1,876.2100830078125,859.3983764648438)" style="transform:matrix(1, 0, 0, 1, 876.21, 859.398);animation-play-state:paused" ><path d="M84.717,33.597c0.791-2.503,1.186-5.138,1.186-7.773C85.903,11.594,74.308,0,60.079,0 c-9.881,0-18.445,5.534-22.793,13.702c-1.581-0.527-3.426-0.791-5.138-0.791c-9.486,0-17.128,7.642-17.128,17.128 c0,1.186,0.132,2.372,0.395,3.426C6.719,34.783,0,42.424,0,51.515C0,61.66,8.169,69.829,18.314,69.829h63.373 C91.831,69.829,100,61.66,100,51.515C99.868,42.556,93.281,35.046,84.717,33.597z" fill="#bddeff" transform="scale(1)" style="transform:matrix(1, 0, 0, 1, 0, 0);animation-play-state:paused" ></path></g>
<g transform="matrix(1,0,0,1,281.0128173828125,593.7589721679688)" style="transform:matrix(1, 0, 0, 1, 281.013, 593.759);animation-play-state:paused" ><path d="M84.717,33.597c0.791-2.503,1.186-5.138,1.186-7.773C85.903,11.594,74.308,0,60.079,0 c-9.881,0-18.445,5.534-22.793,13.702c-1.581-0.527-3.426-0.791-5.138-0.791c-9.486,0-17.128,7.642-17.128,17.128 c0,1.186,0.132,2.372,0.395,3.426C6.719,34.783,0,42.424,0,51.515C0,61.66,8.169,69.829,18.314,69.829h63.373 C91.831,69.829,100,61.66,100,51.515C99.868,42.556,93.281,35.046,84.717,33.597z" fill="#bddeff" transform="scale(1)" style="transform:matrix(1, 0, 0, 1, 0, 0);animation-play-state:paused" ></path></g>
<g transform="matrix(1,0,0,1,1106.9866943359375,325.7540588378906)" style="transform:matrix(1, 0, 0, 1, 1106.99, 325.754);animation-play-state:paused" ><path d="M84.717,33.597c0.791-2.503,1.186-5.138,1.186-7.773C85.903,11.594,74.308,0,60.079,0 c-9.881,0-18.445,5.534-22.793,13.702c-1.581-0.527-3.426-0.791-5.138-0.791c-9.486,0-17.128,7.642-17.128,17.128 c0,1.186,0.132,2.372,0.395,3.426C6.719,34.783,0,42.424,0,51.515C0,61.66,8.169,69.829,18.314,69.829h63.373 C91.831,69.829,100,61.66,100,51.515C99.868,42.556,93.281,35.046,84.717,33.597z" fill="#bddeff" transform="scale(1)" style="transform:matrix(1, 0, 0, 1, 0, 0);animation-play-state:paused" ></path></g>
<g transform="matrix(1,0,0,1,259.8976135253906,434.5351867675781)" style="transform:matrix(1, 0, 0, 1, 259.898, 434.535);animation-play-state:paused" ><path d="M84.717,33.597c0.791-2.503,1.186-5.138,1.186-7.773C85.903,11.594,74.308,0,60.079,0 c-9.881,0-18.445,5.534-22.793,13.702c-1.581-0.527-3.426-0.791-5.138-0.791c-9.486,0-17.128,7.642-17.128,17.128 c0,1.186,0.132,2.372,0.395,3.426C6.719,34.783,0,42.424,0,51.515C0,61.66,8.169,69.829,18.314,69.829h63.373 C91.831,69.829,100,61.66,100,51.515C99.868,42.556,93.281,35.046,84.717,33.597z" fill="#bddeff" transform="scale(1)" style="transform:matrix(1, 0, 0, 1, 0, 0);animation-play-state:paused" ></path></g>
<g transform="matrix(1,0,0,1,737.4501953125,335.1013488769531)" style="transform:matrix(1, 0, 0, 1, 737.45, 335.101);animation-play-state:paused" ><path d="M84.717,33.597c0.791-2.503,1.186-5.138,1.186-7.773C85.903,11.594,74.308,0,60.079,0 c-9.881,0-18.445,5.534-22.793,13.702c-1.581-0.527-3.426-0.791-5.138-0.791c-9.486,0-17.128,7.642-17.128,17.128 c0,1.186,0.132,2.372,0.395,3.426C6.719,34.783,0,42.424,0,51.515C0,61.66,8.169,69.829,18.314,69.829h63.373 C91.831,69.829,100,61.66,100,51.515C99.868,42.556,93.281,35.046,84.717,33.597z" fill="#bddeff" transform="scale(1)" style="transform:matrix(1, 0, 0, 1, 0, 0);animation-play-state:paused" ></path></g>
<g transform="matrix(1,0,0,1,678.0647583007812,335.0691223144531)" style="transform:matrix(1, 0, 0, 1, 678.065, 335.069);animation-play-state:paused" ><path d="M84.717,33.597c0.791-2.503,1.186-5.138,1.186-7.773C85.903,11.594,74.308,0,60.079,0 c-9.881,0-18.445,5.534-22.793,13.702c-1.581-0.527-3.426-0.791-5.138-0.791c-9.486,0-17.128,7.642-17.128,17.128 c0,1.186,0.132,2.372,0.395,3.426C6.719,34.783,0,42.424,0,51.515C0,61.66,8.169,69.829,18.314,69.829h63.373 C91.831,69.829,100,61.66,100,51.515C99.868,42.556,93.281,35.046,84.717,33.597z" fill="#bddeff" transform="scale(1)" style="transform:matrix(1, 0, 0, 1, 0, 0);animation-play-state:paused" ></path></g>
<g transform="matrix(1,0,0,1,1064.097900390625,79.50411987304688)" style="transform:matrix(1, 0, 0, 1, 1064.1, 79.5041);animation-play-state:paused" ><path d="M84.717,33.597c0.791-2.503,1.186-5.138,1.186-7.773C85.903,11.594,74.308,0,60.079,0 c-9.881,0-18.445,5.534-22.793,13.702c-1.581-0.527-3.426-0.791-5.138-0.791c-9.486,0-17.128,7.642-17.128,17.128 c0,1.186,0.132,2.372,0.395,3.426C6.719,34.783,0,42.424,0,51.515C0,61.66,8.169,69.829,18.314,69.829h63.373 C91.831,69.829,100,61.66,100,51.515C99.868,42.556,93.281,35.046,84.717,33.597z" fill="#bddeff" transform="scale(1)" style="transform:matrix(1, 0, 0, 1, 0, 0);animation-play-state:paused" ></path></g>
<g transform="matrix(1,0,0,1,1650.303466796875,801.8745727539062)" style="transform:matrix(1, 0, 0, 1, 1650.3, 801.875);animation-play-state:paused" ><path d="M84.717,33.597c0.791-2.503,1.186-5.138,1.186-7.773C85.903,11.594,74.308,0,60.079,0 c-9.881,0-18.445,5.534-22.793,13.702c-1.581-0.527-3.426-0.791-5.138-0.791c-9.486,0-17.128,7.642-17.128,17.128 c0,1.186,0.132,2.372,0.395,3.426C6.719,34.783,0,42.424,0,51.515C0,61.66,8.169,69.829,18.314,69.829h63.373 C91.831,69.829,100,61.66,100,51.515C99.868,42.556,93.281,35.046,84.717,33.597z" fill="#bddeff" transform="scale(1)" style="transform:matrix(1, 0, 0, 1, 0, 0);animation-play-state:paused" ></path></g>
<g transform="matrix(1,0,0,1,-54.91553497314453,543.9077758789062)" style="transform:matrix(1, 0, 0, 1, -54.9155, 543.908);animation-play-state:paused" ><path d="M84.717,33.597c0.791-2.503,1.186-5.138,1.186-7.773C85.903,11.594,74.308,0,60.079,0 c-9.881,0-18.445,5.534-22.793,13.702c-1.581-0.527-3.426-0.791-5.138-0.791c-9.486,0-17.128,7.642-17.128,17.128 c0,1.186,0.132,2.372,0.395,3.426C6.719,34.783,0,42.424,0,51.515C0,61.66,8.169,69.829,18.314,69.829h63.373 C91.831,69.829,100,61.66,100,51.515C99.868,42.556,93.281,35.046,84.717,33.597z" fill="#bddeff" transform="scale(1)" style="transform:matrix(1, 0, 0, 1, 0, 0);animation-play-state:paused" ></path></g>
<g transform="matrix(1,0,0,1,395.2503662109375,709.9558715820312)" style="transform:matrix(1, 0, 0, 1, 395.25, 709.956);animation-play-state:paused" ><path d="M84.717,33.597c0.791-2.503,1.186-5.138,1.186-7.773C85.903,11.594,74.308,0,60.079,0 c-9.881,0-18.445,5.534-22.793,13.702c-1.581-0.527-3.426-0.791-5.138-0.791c-9.486,0-17.128,7.642-17.128,17.128 c0,1.186,0.132,2.372,0.395,3.426C6.719,34.783,0,42.424,0,51.515C0,61.66,8.169,69.829,18.314,69.829h63.373 C91.831,69.829,100,61.66,100,51.515C99.868,42.556,93.281,35.046,84.717,33.597z" fill="#bddeff" transform="scale(1)" style="transform:matrix(1, 0, 0, 1, 0, 0);animation-play-state:paused" ></path></g>
<g transform="matrix(1,0,0,1,1918.5333251953125,842.748779296875)" style="transform:matrix(1, 0, 0, 1, 1918.53, 842.749);animation-play-state:paused" ><path d="M84.717,33.597c0.791-2.503,1.186-5.138,1.186-7.773C85.903,11.594,74.308,0,60.079,0 c-9.881,0-18.445,5.534-22.793,13.702c-1.581-0.527-3.426-0.791-5.138-0.791c-9.486,0-17.128,7.642-17.128,17.128 c0,1.186,0.132,2.372,0.395,3.426C6.719,34.783,0,42.424,0,51.515C0,61.66,8.169,69.829,18.314,69.829h63.373 C91.831,69.829,100,61.66,100,51.515C99.868,42.556,93.281,35.046,84.717,33.597z" fill="#bddeff" transform="scale(1)" style="transform:matrix(1, 0, 0, 1, 0, 0);animation-play-state:paused" ></path></g></g></svg>